<svg width="145" height="40" viewBox="0 0 145 40" fill="none" xmlns="http://www.w3.org/2000/svg">
<path d="M10.3647 10.031L9.69789 14.2761H0V13.9213H0.271762C0.709602 13.9213 1.04176 13.7753 1.20783 13.5463C1.39656 13.2972 1.43682 13.0481 1.43682 12.0894V2.58272C1.43682 1.62652 1.39404 1.37489 1.20783 1.12577C1.04176 0.896786 0.709602 0.77097 0.271762 0.77097H0V0.396039H9.38587V4.32905H9.03107C8.9279 3.33007 8.59323 2.5173 8.03209 1.95616C7.38791 1.31198 6.55501 1.10312 4.64009 1.10312H4.24503V6.84788C5.76489 6.8051 6.45184 5.86903 6.61792 3.66474H6.99285V10.7205H6.61792C6.53488 8.59672 5.78502 7.59774 4.24503 7.59774V11.9258C4.24503 13.34 4.43124 13.569 5.5359 13.569C8.05474 13.569 9.19966 12.653 9.98979 10.031H10.3647ZM20.9559 14.4648L13.1931 3.28981L13.2761 12.0919C13.2962 13.0506 13.339 13.2997 13.5252 13.5488C13.7114 13.7778 14.0461 13.9238 14.4613 13.9238H14.6072V14.2786H11.1121V13.9238H11.3612C11.9022 13.9238 12.2771 13.7149 12.4231 13.3199C12.5061 13.111 12.5262 12.8216 12.5262 12.0919L12.4835 2.22792L11.9223 1.45793C11.5071 0.874139 11.4442 0.813748 11.1095 0.77097V0.396039H14.4814L20.5155 9.13773V2.60285C20.5155 1.64665 20.4728 1.39502 20.2866 1.1459C20.1205 0.916917 19.7657 0.77097 19.3505 0.77097H19.1844V0.396039H22.4506V0.77097H22.3474C21.8064 0.77097 21.4315 0.979825 21.2855 1.37489C21.2226 1.56109 21.2025 1.93603 21.2025 2.60285L21.3057 14.4648H20.9509H20.9559ZM32.2768 4.20575C32.1938 3.18664 31.9648 2.53994 31.5068 2.02158C30.9029 1.33463 30.1531 1.12577 28.1777 1.12577H27.5336V6.89066C29.3654 6.89066 30.1983 5.99485 30.2386 3.99689H30.6337V10.7406H30.2386C30.1958 8.69989 29.2598 7.64052 27.5336 7.66065V12.0944C27.5336 13.0305 27.5763 13.3022 27.7625 13.5312C27.9513 13.7803 28.2834 13.9263 28.6986 13.9263H28.8446V14.2811H23.4949V13.9263H23.5578C23.973 13.9263 24.3278 13.7803 24.4938 13.5312C24.6801 13.3022 24.7228 13.033 24.7228 12.0944V2.58272C24.7228 1.64665 24.6801 1.37489 24.4938 1.12577C24.3278 0.896786 23.9956 0.75084 23.5578 0.75084H23.4949V0.396039H32.6518V4.20575H32.2768ZM42.4956 14.2786H37.6039V13.9238H37.7297C38.3739 13.9238 38.6255 13.7577 38.6255 13.3828C38.6255 13.1739 38.5425 12.7587 38.4393 12.3838L38.0241 10.9897H34.612L34.1968 12.3637C34.071 12.7386 34.0106 13.0707 34.0106 13.2368C34.0106 13.6747 34.3226 13.9238 34.8837 13.9238H35.0095V14.2786H32.1384V13.9238C32.8682 13.798 33.0116 13.569 33.6155 11.6968L37.2289 0.000976562H37.6039L41.1217 11.8428C41.5998 13.4255 41.8489 13.798 42.4956 13.9238V14.2786ZM36.4388 4.76689L34.8561 10.2399H37.8102L36.4363 4.76689H36.4388ZM52.8779 14.4648L45.1151 3.28981L45.1981 12.0919C45.2183 13.0506 45.261 13.2997 45.4472 13.5488C45.6334 13.7778 45.9681 13.9238 46.3833 13.9238H46.5293V14.2786H43.0341V13.9238H43.2832C43.8242 13.9238 44.1991 13.7149 44.3451 13.3199C44.4281 13.111 44.4483 12.8216 44.4483 12.0919L44.4055 2.22792L43.8443 1.45793C43.4292 0.874139 43.3662 0.813748 43.0316 0.77097V0.396039H46.4034L52.4401 9.13773V2.60285C52.4401 1.64665 52.3973 1.39502 52.2111 1.1459C52.045 0.916917 51.6902 0.77097 51.275 0.77097H51.109V0.396039H54.3777V0.77097H54.2745C53.7335 0.77097 53.3585 0.979825 53.2126 1.37489C53.1497 1.56109 53.1296 1.93603 53.1296 2.60285L53.2327 14.4648H52.8779ZM55.437 4.0598V0.396039H65.4671V4.0598H65.1123C64.8632 1.87563 64.0932 1.1459 62.0122 1.1459H61.8662V12.0919C61.8662 13.028 61.909 13.2997 62.0952 13.5488C62.2613 13.7778 62.6161 13.9238 63.0313 13.9238H63.4062V14.2786H57.5583V13.9238H57.8904C58.3056 13.9238 58.6604 13.7778 58.8265 13.5488C59.0127 13.2997 59.0555 13.028 59.0555 12.0919V1.1459H58.7007C56.7656 1.1459 55.9956 1.9159 55.7868 4.0598H55.432H55.437ZM73.8741 4.60081C73.4589 2.31096 72.1479 0.876656 70.5022 0.876656C69.3372 0.876656 68.464 1.74982 68.464 2.91739C68.464 3.9365 69.0679 4.58319 71.0458 5.64256C72.4826 6.39243 73.2526 6.93344 73.7709 7.51471C74.478 8.2847 74.8328 9.28368 74.8328 10.4286C74.8328 12.8216 73.1897 14.5906 70.9401 14.5906C70.2531 14.5906 69.6089 14.4245 68.4841 13.9867C68.0891 13.8206 67.923 13.7778 67.7569 13.7778C67.382 13.7778 67.153 14.0269 67.0272 14.5906H66.6724V9.42962H67.0272C67.3593 11.9887 68.922 13.8206 70.7539 13.8206C71.9617 13.8206 72.8349 12.8418 72.8349 11.5106C72.8349 10.2827 72.3568 9.74165 70.1499 8.47091C68.7131 7.63801 68.1319 7.22281 67.5908 6.57612C66.9668 5.8489 66.6548 4.97322 66.6548 3.95411C66.6548 1.70704 68.1117 0.0840151 70.1097 0.0840151C70.7539 0.0840151 71.3175 0.229962 72.1705 0.625024C72.6688 0.874139 72.8978 0.937047 73.1066 0.937047C73.5218 0.937047 73.6678 0.728193 73.7734 0.0840151H74.1484L74.2515 4.60081H73.8766H73.8741ZM93.4158 14.2786H89.8779L86.735 7.82673H86.2141V12.0919C86.2141 13.028 86.2569 13.2997 86.4431 13.5488C86.6092 13.7778 86.9413 13.9238 87.3792 13.9238H87.588V14.2786H82.0924V13.9238H82.2383C82.6535 13.9238 83.0083 13.7778 83.1744 13.5488C83.3631 13.2997 83.4034 13.0506 83.4034 12.0919V2.58272C83.4034 1.62652 83.3606 1.37489 83.1744 1.1459C83.0083 0.896786 82.6535 0.77097 82.2383 0.77097H82.0924V0.396039H86.2141C88.4209 0.396039 89.3771 0.541985 90.2729 0.957178C91.3751 1.49819 92.0419 2.72615 92.0419 4.1831C92.0419 5.93194 91.1058 7.24294 89.586 7.67827L91.896 12.4014C92.4999 13.6696 92.749 13.9213 93.4158 13.9213V14.2761V14.2786ZM86.2141 7.20268H86.4632C87.4622 7.20268 87.963 7.05674 88.3782 6.6818C88.899 6.18357 89.1683 5.32802 89.1683 4.07993C89.1683 1.9159 88.4612 1.1459 86.4431 1.1459H86.2141V7.20268ZM99.7192 0.396039V0.75084H99.6362C99.221 0.75084 98.8662 0.896786 98.7001 1.1459C98.5139 1.37489 98.4711 1.64413 98.4711 2.58272V12.0944C98.4711 13.0305 98.5139 13.3022 98.7001 13.5312C98.8662 13.7803 99.221 13.9263 99.6362 13.9263H99.7192V14.2811H94.4324V13.9263H94.4953C94.9105 13.9263 95.2452 13.7803 95.4314 13.5312C95.6201 13.3022 95.6604 13.033 95.6604 12.0944V2.58272C95.6604 1.64665 95.6176 1.37489 95.4314 1.1459C95.2452 0.896786 94.9105 0.75084 94.4953 0.75084H94.4324V0.396039H99.7192ZM110.479 4.74675C110.25 2.58272 108.876 0.959694 107.273 0.959694C105.172 0.959694 104.007 3.24954 104.007 7.36876C104.007 9.20064 104.216 10.7205 104.588 11.6339C105.129 12.9877 106.025 13.6948 107.147 13.6948C108.541 13.6948 109.812 12.8216 110.851 11.1357V12.2806C109.832 13.7577 108.292 14.5906 106.564 14.5906C103.192 14.5906 100.862 11.7396 100.862 7.64052C100.862 3.54144 103.383 0.0840151 106.649 0.0840151C107.585 0.0840151 107.857 0.167054 109.397 0.874139C109.583 0.957178 109.772 1.02009 109.918 1.02009C110.23 1.02009 110.396 0.77097 110.479 0.0840151H110.854V4.74675H110.479ZM116.201 7.55497V12.0919C116.201 13.0506 116.244 13.2997 116.43 13.5488C116.596 13.7778 116.931 13.9238 117.366 13.9238H117.512V14.2786H112.059V13.9238H112.225C112.641 13.9238 112.975 13.7778 113.161 13.5488C113.348 13.2997 113.39 13.028 113.39 12.0919V2.60285C113.39 1.64665 113.348 1.39502 113.161 1.1459C112.975 0.916917 112.641 0.77097 112.225 0.77097H112.059V0.396039H117.512V0.77097H117.366C116.951 0.77097 116.596 0.916917 116.43 1.1459C116.244 1.39502 116.201 1.64413 116.201 2.60285V6.70193H120.28V2.60285C120.28 1.64665 120.237 1.39502 120.051 1.1459C119.865 0.916917 119.53 0.77097 119.095 0.77097H118.949V0.396039H124.382V0.77097H124.236C123.821 0.77097 123.486 0.916917 123.32 1.1459C123.131 1.39502 123.091 1.64413 123.091 2.60285V12.0919C123.091 13.028 123.134 13.2997 123.32 13.5488C123.486 13.7778 123.818 13.9238 124.236 13.9238H124.382V14.2786H118.949V13.9238H119.095C119.533 13.9238 119.865 13.7778 120.051 13.5488C120.237 13.2771 120.28 13.0506 120.28 12.0919V7.55497H116.201ZM135.451 10.031L134.784 14.2761H125.086V13.9213H125.358C125.796 13.9213 126.128 13.7753 126.294 13.5463C126.48 13.2972 126.523 13.0481 126.523 12.0894V2.58272C126.523 1.62652 126.483 1.37489 126.294 1.12577C126.128 0.896786 125.793 0.77097 125.358 0.77097H125.086V0.396039H134.472V4.32905H134.117C134.014 3.33007 133.679 2.5173 133.118 1.95616C132.474 1.31198 131.641 1.10312 129.726 1.10312H129.331V6.84788C130.851 6.8051 131.538 5.86903 131.704 3.66474H132.079V10.7205H131.704C131.621 8.59672 130.871 7.59774 129.331 7.59774V11.9258C129.331 13.34 129.52 13.569 130.622 13.569C133.141 13.569 134.286 12.653 135.076 10.031H135.451ZM143.984 4.60081C143.569 2.31096 142.258 0.876656 140.612 0.876656C139.447 0.876656 138.574 1.74982 138.574 2.91739C138.574 3.9365 139.178 4.58319 141.155 5.64256C142.592 6.39243 143.362 6.93344 143.881 7.51471C144.588 8.2847 144.943 9.28368 144.943 10.4286C144.943 12.8216 143.299 14.5906 141.05 14.5906C140.363 14.5906 139.719 14.4245 138.594 13.9867C138.199 13.8206 138.033 13.7778 137.867 13.7778C137.492 13.7778 137.263 14.0269 137.139 14.5906H136.785V9.42962H137.139C137.472 11.9887 139.034 13.8206 140.864 13.8206C142.071 13.8206 142.945 12.8418 142.945 11.5106C142.945 10.2827 142.466 9.74165 140.26 8.47091C138.823 7.63801 138.242 7.22281 137.701 6.57612C137.076 5.8489 136.764 4.97322 136.764 3.95411C136.764 1.70704 138.221 0.0840151 140.219 0.0840151C140.864 0.0840151 141.427 0.229962 142.28 0.625024C142.781 0.874139 143.007 0.937047 143.216 0.937047C143.632 0.937047 143.777 0.728193 143.883 0.0840151H144.258L144.361 4.60081H143.986H143.984ZM4.24503 25.368C7.22184 25.368 8.40702 25.7631 9.55195 27.137C10.634 28.4052 11.1951 30.154 11.1951 32.2778C11.1951 35.0256 10.3219 37.1066 8.71905 38.2289C7.53386 39.0618 6.53488 39.248 3.26618 39.248H0.125816V38.8932H0.271762C0.686955 38.8932 1.04176 38.7473 1.20783 38.5183C1.39656 38.2692 1.43682 37.9974 1.43682 37.0613V27.5496C1.43682 26.6136 1.39656 26.3418 1.20783 26.1128C1.04176 25.8838 0.686955 25.7379 0.271762 25.7379H0.125816V25.363H4.24755L4.24503 25.368ZM4.24503 36.0649C4.24503 37.6678 4.26516 37.9798 4.39098 38.2088C4.51679 38.4378 4.74578 38.5409 5.14084 38.5409C6.014 38.5409 6.68083 38.249 7.09602 37.6451C7.76284 36.7719 8.11513 34.857 8.11513 32.3382C8.11513 30.1943 7.80311 28.4253 7.21932 27.3433C6.72109 26.4475 5.97123 26.0952 4.53441 26.0952H4.24251V36.0649H4.24503ZM22.3499 35.003L21.6831 39.248H11.9852V38.8932H12.257C12.6948 38.8932 13.027 38.7473 13.1931 38.5183C13.3793 38.2692 13.422 38.02 13.422 37.0613V27.5496C13.422 26.5909 13.3793 26.3418 13.1931 26.0927C13.027 25.8637 12.6948 25.7379 12.257 25.7379H11.9852V25.363H21.3711V29.296H21.0163C20.9131 28.297 20.5785 27.4842 20.0173 26.9231C19.3731 26.2789 18.5402 26.07 16.6253 26.07H16.2303V31.8148C17.7501 31.772 18.4371 30.836 18.6031 28.6317H18.9781V35.6874H18.6031C18.5201 33.5662 17.7702 32.5647 16.2303 32.5647V36.8927C16.2303 38.3069 16.4165 38.5359 17.5211 38.5359C20.04 38.5359 21.1849 37.6199 21.975 34.9979H22.3499V35.003ZM27.3021 37.0638C27.3021 37.9999 27.3448 38.2717 27.531 38.5208C27.6971 38.7498 28.0519 38.8957 28.4671 38.8957H28.8219V39.2505H23.203V38.8957H23.3288C23.744 38.8957 24.0988 38.7498 24.2649 38.5208C24.4536 38.2717 24.4938 37.9999 24.4938 37.0638V27.5748C24.4938 26.6387 24.4536 26.367 24.2649 26.1179C24.0787 25.8687 23.744 25.7429 23.3288 25.7429H23.203V25.368H26.5119C29.6951 25.368 30.8199 25.4938 31.7761 25.992C32.838 26.533 33.5451 27.7811 33.5451 29.0921C33.5451 30.4862 32.7348 31.7972 31.527 32.3382C30.6312 32.7534 29.5718 32.922 27.8431 32.922H27.3021V37.0638ZM27.3021 32.1948H27.6569C28.8647 32.1948 29.3428 32.0689 29.758 31.6538C30.216 31.1958 30.4651 30.2798 30.4651 29.1349C30.4651 27.99 30.1933 27.1168 29.675 26.6589C29.2598 26.2638 28.7389 26.138 27.6569 26.138H27.3021V32.1948ZM45.3868 39.2505H41.8489L38.706 32.7987H38.1851V37.0638C38.1851 37.9999 38.2279 38.2717 38.4141 38.5208C38.5802 38.7498 38.9124 38.8957 39.3502 38.8957H39.5591V39.2505H34.0659V38.8957H34.2119C34.6271 38.8957 34.9819 38.7498 35.1479 38.5208C35.3342 38.2717 35.3769 38.0226 35.3769 37.0638V27.5522C35.3769 26.5934 35.3342 26.3443 35.1479 26.1153C34.9819 25.8662 34.6271 25.7404 34.2119 25.7404H34.0659V25.3655H38.1877C40.3945 25.3655 41.3507 25.5114 42.2465 25.9266C43.3486 26.4676 44.0155 27.6956 44.0155 29.1525C44.0155 30.9014 43.0794 32.2124 41.5595 32.6477L43.8695 37.3708C44.4734 38.6391 44.7225 38.8907 45.3894 38.8907V39.2455L45.3868 39.2505ZM38.1851 32.1746H38.4343C39.4332 32.1746 39.9315 32.0287 40.3492 31.6538C40.8701 31.153 41.1393 30.3 41.1393 29.0519C41.1393 26.8878 40.4322 26.1179 38.4141 26.1179H38.1851V32.1746ZM51.6927 25.368V25.7228H51.6097C51.1945 25.7228 50.8397 25.8687 50.6736 26.1179C50.4874 26.3468 50.4447 26.6161 50.4447 27.5547V37.0664C50.4447 38.0024 50.4874 38.2742 50.6736 38.5032C50.8397 38.7523 51.1945 38.8982 51.6097 38.8982H51.6927V39.253H46.406V38.8982H46.4689C46.8841 38.8982 47.2187 38.7523 47.4049 38.5032C47.5911 38.2742 47.6339 38.0049 47.6339 37.0664V27.5547C47.6339 26.6186 47.5911 26.3468 47.4049 26.1179C47.2187 25.8687 46.8841 25.7228 46.4689 25.7228H46.406V25.368H51.6927ZM56.9569 25.368L59.8708 34.2959L62.8476 25.368H67.0297V25.7228C66.5088 25.7656 66.3025 25.8687 66.1138 26.1179C65.9049 26.4097 65.8848 26.6161 65.8848 27.9296V36.7116C65.8848 37.9395 65.9276 38.2314 66.1138 38.5233C66.2798 38.7523 66.529 38.8555 67.0297 38.8982V39.253H61.7228V38.8982H61.909C62.3242 38.8982 62.679 38.7523 62.8451 38.5233C63.0338 38.2742 63.0741 38.0024 63.0741 37.0664V26.9734L58.975 39.253H58.6629L54.6243 27.0564V37.0664C54.6243 38.0024 54.667 38.2742 54.8532 38.5233C55.0395 38.7523 55.3741 38.8982 55.8094 38.8982H55.9126V39.253H52.6867V38.8982C53.1849 38.8781 53.4567 38.7724 53.6429 38.5233C53.8316 38.2742 53.8719 38.0024 53.8719 37.0664V27.5547C53.8719 26.6186 53.8291 26.3468 53.6429 26.1179C53.4567 25.8461 53.2051 25.7429 52.6867 25.7228V25.368H56.9519H56.9569ZM78.2676 35.003L77.6008 39.248H67.9029V38.8932H68.1746C68.6125 38.8932 68.9446 38.7473 69.1107 38.5183C69.2994 38.2692 69.3397 38.02 69.3397 37.0613V27.5496C69.3397 26.5909 69.2994 26.3418 69.1107 26.0927C68.9446 25.8637 68.6125 25.7379 68.1746 25.7379H67.9029V25.363H77.2887V29.296H76.9339C76.8308 28.297 76.4961 27.4842 75.935 26.9231C75.2908 26.2789 74.4579 26.07 72.543 26.07H72.1479V31.8148C73.6678 31.772 74.3547 30.836 74.5208 28.6317H74.8957V35.6874H74.5208C74.4378 33.5662 73.6879 32.5647 72.1479 32.5647V36.8927C72.1479 38.3069 72.3341 38.5359 73.4388 38.5359C75.9576 38.5359 77.1025 37.6199 77.8927 34.9979H78.2676V35.003ZM86.7979 29.5728C86.3827 27.2829 85.0692 25.8486 83.426 25.8486C82.261 25.8486 81.3853 26.7218 81.3853 27.8868C81.3853 28.9059 81.9892 29.5526 83.9671 30.612C85.4039 31.3619 86.1739 31.9029 86.6922 32.4841C87.3993 33.2541 87.7541 34.2531 87.7541 35.398C87.7541 37.7911 86.111 39.56 83.8614 39.56C83.1744 39.56 82.5302 39.394 81.4054 38.9561C81.0104 38.79 80.8443 38.7473 80.6757 38.7473C80.3008 38.7473 80.0718 38.9964 79.9485 39.5575H79.5937V34.3965H79.9485C80.2806 36.9556 81.8433 38.7875 83.6726 38.7875C84.8805 38.7875 85.7536 37.8087 85.7536 36.4775C85.7536 35.2496 85.2755 34.7086 83.0687 33.4403C81.6319 32.6074 81.0506 32.1922 80.5096 31.5456C79.8856 30.8158 79.5736 29.9427 79.5736 28.9235C79.5736 26.6765 81.0305 25.0534 83.0285 25.0534C83.6726 25.0534 84.2363 25.1994 85.0893 25.5945C85.5901 25.8436 85.8191 25.9065 86.0254 25.9065C86.4406 25.9065 86.5865 25.6976 86.6922 25.0534H87.0672L87.1703 29.5702H86.7954L86.7979 29.5728ZM18.3742 19.0948H21.1019L18.125 22.5497H17.3551L18.3742 19.0948ZM74.8957 19.0948H77.6234L74.6466 22.5497H73.8766L74.8957 19.0948Z" fill="black"/>
</svg>
